<svg width="15" height="15" viewBox="0 0 15 15" fill="none" xmlns="http://www.w3.org/2000/svg">
<path d="M7.18125 13.5824C3.65294 13.5824 0.780334 10.7098 0.780334 7.18149C0.780334 3.65318 3.65294 0.780579 7.18125 0.780579C10.7096 0.780579 13.5822 3.65318 13.5822 7.18149C13.5822 10.7098 10.7096 13.5824 7.18125 13.5824ZM7.18125 1.7173C4.16501 1.7173 1.71705 4.1715 1.71705 7.18149C1.71705 10.1915 4.16501 12.6457 7.18125 12.6457C10.1975 12.6457 12.6454 10.1915 12.6454 7.18149C12.6454 4.1715 10.1975 1.7173 7.18125 1.7173Z" fill="#9E9E9E"/>
<path d="M13.7383 14.2069C13.6197 14.2069 13.501 14.1632 13.4074 14.0695L12.1584 12.8206C11.9773 12.6395 11.9773 12.3397 12.1584 12.1586C12.3395 11.9775 12.6393 11.9775 12.8204 12.1586L14.0693 13.4076C14.2504 13.5887 14.2504 13.8884 14.0693 14.0695C13.9756 14.1632 13.857 14.2069 13.7383 14.2069Z" fill="#9E9E9E"/>
</svg>
