<svg width="21" height="21" viewBox="0 0 21 21" fill="none" xmlns="http://www.w3.org/2000/svg">
<path d="M15.2473 2.11917L5.25566 2.11917C3.87348 2.11917 2.75774 3.22658 2.75774 4.59211L2.75774 13.6762C2.75774 15.0417 3.87348 16.1491 5.25566 16.1491H5.88847C6.55458 16.1491 7.18738 16.4073 7.65366 16.8735L9.07747 18.2807C9.72693 18.9218 10.7844 18.9218 11.4338 18.2807L12.8577 16.8735C13.3239 16.4073 13.9651 16.1491 14.6228 16.1491H15.2473C16.6295 16.1491 17.7452 15.0417 17.7452 13.6762V4.59211C17.7452 3.22658 16.6295 2.11917 15.2473 2.11917ZM10.2515 5.24157C11.3256 5.24157 12.1915 6.10751 12.1915 7.18162C12.1915 8.25572 11.3256 9.12166 10.2515 9.12166C9.17739 9.12166 8.31145 8.24739 8.31145 7.18162C8.31145 6.10751 9.17739 5.24157 10.2515 5.24157ZM12.483 12.9934H8.02002C7.34558 12.9934 6.95424 12.2441 7.32893 11.6862C7.89513 10.8452 8.99421 10.279 10.2515 10.279C11.5088 10.279 12.6079 10.8452 13.1741 11.6862C13.5487 12.2441 13.1491 12.9934 12.483 12.9934Z" fill="#1FCB4F"/>
</svg>
