<svg width="21" height="21" viewBox="0 0 21 21" fill="none" xmlns="http://www.w3.org/2000/svg">
<path d="M5.25591 5.08153C4.91453 5.08153 4.63143 4.79844 4.63143 4.45705V2.99994C4.63143 2.65855 4.91453 2.37546 5.25591 2.37546C5.59729 2.37546 5.88039 2.65855 5.88039 2.99994V4.45705C5.88039 4.80676 5.59729 5.08153 5.25591 5.08153Z" fill="#1FCB4F"/>
<path d="M8.58646 5.08153C8.24508 5.08153 7.96198 4.79844 7.96198 4.45705V2.99994C7.96198 2.65855 8.24508 2.37546 8.58646 2.37546C8.92784 2.37546 9.21094 2.65855 9.21094 2.99994V4.45705C9.21094 4.80676 8.92784 5.08153 8.58646 5.08153Z" fill="#1FCB4F"/>
<path d="M11.917 5.08153C11.5756 5.08153 11.2925 4.79844 11.2925 4.45705V2.99994C11.2925 2.65855 11.5756 2.37546 11.917 2.37546C12.2584 2.37546 12.5415 2.65855 12.5415 2.99994V4.45705C12.5415 4.80676 12.2584 5.08153 11.917 5.08153Z" fill="#1FCB4F"/>
<path d="M18.7863 11.8509C18.7863 9.66936 17.096 7.90417 14.9645 7.72099C14.3483 6.71349 13.2492 6.03073 11.9836 6.03073H5.84708C3.91536 6.03073 2.34167 7.60442 2.34167 9.53614V9.97744H15.489V9.53614C15.489 9.37794 15.4641 9.21974 15.4391 9.06986C16.6464 9.4279 17.5373 10.527 17.5373 11.8509C17.5373 13.1581 16.6714 14.2489 15.489 14.6152V10.8101H2.34167L2.34167 15.6311C2.34167 17.5628 3.91536 19.1365 5.84708 19.1365H11.9836C13.8154 19.1365 15.3059 17.721 15.4557 15.9225C17.3542 15.5395 18.7863 13.8575 18.7863 11.8509Z" fill="#1FCB4F"/>
</svg>
