<svg width="21" height="21" viewBox="0 0 21 21" fill="none" xmlns="http://www.w3.org/2000/svg">
<path d="M9.68563 3.02734H4.49829C2.84134 3.02734 2.0087 3.86831 2.0087 5.54191L2.0087 18.8475H6.50495V15.7251C6.50495 15.3837 6.78804 15.1006 7.12943 15.1006C7.47081 15.1006 7.75391 15.3754 7.75391 15.7251V18.8475H12.1669V5.54191C12.1669 3.86831 11.3426 3.02734 9.68563 3.02734ZM9.21102 11.1456H5.08946C4.74808 11.1456 4.46498 10.8625 4.46498 10.5211C4.46498 10.1797 4.74808 9.89662 5.08946 9.89662H9.21102C9.55241 9.89662 9.8355 10.1797 9.8355 10.5211C9.8355 10.8625 9.55241 11.1456 9.21102 11.1456ZM9.21102 8.02318H5.08946C4.74808 8.02318 4.46498 7.74008 4.46498 7.3987C4.46498 7.05732 4.74808 6.77422 5.08946 6.77422H9.21102C9.55241 6.77422 9.8355 7.05732 9.8355 7.3987C9.8355 7.74008 9.55241 8.02318 9.21102 8.02318Z" fill="#1FCB4F"/>
<path d="M19.4108 18.223H17.5207V15.7251C18.3117 15.467 18.8862 14.7259 18.8862 13.8516V12.1864C18.8862 11.0956 17.9953 10.2047 16.9045 10.2047C15.8138 10.2047 14.9228 11.0956 14.9228 12.1864V13.8516C14.9228 14.7176 15.489 15.4503 16.2634 15.7168V18.223H1.09271C0.75133 18.223 0.468233 18.5061 0.468233 18.8475C0.468233 19.1889 0.75133 19.472 1.09271 19.472H16.8546C16.8712 19.472 16.8795 19.4803 16.8962 19.4803C16.9129 19.4803 16.9212 19.472 16.9378 19.472H19.4108C19.7521 19.472 20.0352 19.1889 20.0352 18.8475C20.0352 18.5061 19.7521 18.223 19.4108 18.223Z" fill="#1FCB4F"/>
</svg>
