<svg width="21" height="21" viewBox="0 0 21 21" fill="none" xmlns="http://www.w3.org/2000/svg">
<path d="M13.5823 10.8068V15.2948C13.5823 17.2431 12.2834 18.5337 10.3433 18.5337H5.16432C3.22427 18.5337 1.92535 17.2431 1.92535 15.2948L1.92535 8.82515C1.92535 6.87677 3.22427 5.58618 5.16432 5.58618H8.35332C9.21094 5.58618 10.0353 5.92756 10.6431 6.53539L12.6331 8.51707C13.2409 9.1249 13.5823 9.94921 13.5823 10.8068Z" fill="#1FCB4F"/>
<path d="M18.5781 7.10985V11.5978C18.5781 13.5378 17.2792 14.8367 15.3392 14.8367H14.415V10.8068C14.415 9.73266 13.982 8.68353 13.2243 7.92583L11.2343 5.94415C10.4766 5.18645 9.42744 4.75348 8.35334 4.75348H6.93785C7.08773 3.02159 8.34501 1.88087 10.1602 1.88087L13.3492 1.88087C14.2068 1.88087 15.0311 2.22226 15.6389 2.83008L17.6289 4.82009C18.2368 5.42792 18.5781 6.25223 18.5781 7.10985Z" fill="#1FCB4F"/>
</svg>
