<svg width="21" height="21" viewBox="0 0 21 21" fill="none" xmlns="http://www.w3.org/2000/svg">
<path d="M15.286 15.5206H5.12781C3.19609 15.5206 2.08868 14.4132 2.08868 12.4815L2.08868 2.40652C2.08868 2.06514 2.37178 1.78204 2.71316 1.78204L17.7007 1.78204C18.042 1.78204 18.3251 2.06514 18.3251 2.40652V12.4815C18.3251 14.4132 17.2177 15.5206 15.286 15.5206ZM3.33764 3.031V12.4815C3.33764 13.7221 3.88718 14.2716 5.12781 14.2716H15.2777C16.5183 14.2716 17.0678 13.7221 17.0678 12.4815V3.031L3.33764 3.031Z" fill="#A9A9A9"/>
<path d="M18.5333 3.031L1.88052 3.031C1.53914 3.031 1.25604 2.7479 1.25604 2.40652C1.25604 2.06514 1.53914 1.78204 1.88052 1.78204L18.5333 1.78204C18.8747 1.78204 19.1578 2.06514 19.1578 2.40652C19.1578 2.7479 18.8747 3.031 18.5333 3.031Z" fill="#A9A9A9"/>
<path d="M6.87657 19.6838C6.64343 19.6838 6.42693 19.5589 6.31869 19.3424C6.16049 19.0343 6.28541 18.6596 6.60181 18.5014L9.58265 17.011V14.8961C9.58265 14.5547 9.86574 14.2716 10.2071 14.2716C10.5485 14.2716 10.8316 14.5547 10.8316 14.8961V17.394C10.8316 17.6272 10.6984 17.8437 10.4819 17.9519L7.15133 19.6172C7.06807 19.6588 6.96816 19.6838 6.87657 19.6838Z" fill="#A9A9A9"/>
<path d="M13.5374 19.6837C13.4458 19.6837 13.3459 19.6587 13.2627 19.6171L9.93212 17.9518C9.62404 17.7936 9.49912 17.4189 9.649 17.1109C9.8072 16.8028 10.1819 16.6779 10.49 16.8278L13.8205 18.493C14.1286 18.6512 14.2535 19.0259 14.1036 19.334C13.9871 19.5588 13.7622 19.6837 13.5374 19.6837Z" fill="#A9A9A9"/>
<path d="M6.45997 10.5247C6.28511 10.5247 6.10194 10.4497 5.97705 10.2999C5.75223 10.0334 5.79384 9.64209 6.06029 9.41728L8.68312 7.22743C8.92459 7.0276 9.23265 6.94434 9.52407 6.9943C9.82382 7.04425 10.082 7.22741 10.2402 7.49386L11.1144 8.95098L13.554 6.91936C13.8205 6.70288 14.2118 6.73616 14.4366 7.00261C14.6614 7.26905 14.6198 7.66039 14.3534 7.8852L11.7306 10.075C11.4891 10.2749 11.181 10.3581 10.8896 10.3082C10.5899 10.2582 10.3317 10.0751 10.1735 9.80862L9.29927 8.3515L6.85964 10.3831C6.74307 10.4747 6.60151 10.5247 6.45997 10.5247Z" fill="#A9A9A9"/>
</svg>
