<svg width="20" height="20" viewBox="0 0 20 20" fill="none" xmlns="http://www.w3.org/2000/svg">
<path d="M18.3181 10.5079V12.2231C18.3181 12.6894 17.9351 13.0724 17.4605 13.0724H15.8535C14.9542 13.0724 14.1299 12.4146 14.055 11.5154C14.005 10.9908 14.2049 10.4995 14.5546 10.1582C14.8627 9.84175 15.2873 9.65857 15.7536 9.65857H17.4605C17.9351 9.65857 18.3181 10.0416 18.3181 10.5079Z" fill="#9E9E9E"/>
<path d="M12.8059 11.6236C12.7309 10.7494 13.0473 9.89175 13.6801 9.26727C14.213 8.72605 14.9541 8.40965 15.7534 8.40965H16.228C16.4612 8.40965 16.6527 8.21814 16.6194 7.98501C16.3945 6.36969 14.9957 5.12073 13.3221 5.12073H4.99572C3.15558 5.12073 1.66516 6.61115 1.66516 8.45128L1.66516 14.2798C1.66516 16.1199 3.15558 17.6103 4.99572 17.6103H13.3221C15.004 17.6103 16.3945 16.3614 16.6194 14.746C16.6527 14.5129 16.4612 14.3214 16.228 14.3214H15.8533C14.2713 14.3214 12.9391 13.139 12.8059 11.6236ZM10.8242 9.9084H5.82836C5.48697 9.9084 5.20388 9.63363 5.20388 9.28392C5.20388 8.93421 5.48697 8.65944 5.82836 8.65944H10.8242C11.1656 8.65944 11.4487 8.94254 11.4487 9.28392C11.4487 9.6253 11.1656 9.9084 10.8242 9.9084Z" fill="#9E9E9E"/>
<path d="M11.8318 3.31387C12.0483 3.53868 11.8568 3.87174 11.5404 3.87174H5.02082C4.11324 3.87174 3.26395 4.13818 2.55621 4.59613C2.23148 4.80429 1.79018 4.57948 1.94838 4.22144C2.41466 3.13069 3.50541 2.37299 4.7627 2.37299H9.44213C10.408 2.37299 11.2656 2.71437 11.8318 3.31387Z" fill="#9E9E9E"/>
</svg>
