<svg width="20" height="20" viewBox="0 0 20 20" fill="none" xmlns="http://www.w3.org/2000/svg">
<path d="M16.4643 8.23437V8.23436H16.4612H13.0973C12.4726 8.23436 12.163 8.11989 12.0038 7.979C11.8604 7.85203 11.7405 7.61359 11.7405 7.08573V3.31388C11.7405 2.79122 11.8599 2.55164 12.0046 2.42308C12.1643 2.28113 12.4744 2.16525 13.0973 2.16525H16.4612C17.0841 2.16525 17.3942 2.28113 17.5539 2.42308C17.6986 2.55164 17.818 2.79122 17.818 3.31388V7.09406C17.818 7.61709 17.6985 7.85591 17.5547 7.98316C17.396 8.12359 17.087 8.23828 16.4643 8.23437Z" stroke="#A9A9A9"/>
<path d="M17.818 13.0974V16.4612C17.818 17.0731 17.6919 17.3731 17.5325 17.5325C17.3731 17.6919 17.0731 17.818 16.4612 17.818H13.0973C12.4855 17.818 12.1854 17.6919 12.026 17.5325C11.8666 17.3731 11.7405 17.0731 11.7405 16.4612V13.0974C11.7405 12.4855 11.8666 12.1855 12.026 12.0261C12.1854 11.8667 12.4855 11.7406 13.0973 11.7406H16.4612C17.0731 11.7406 17.3731 11.8667 17.5325 12.0261C17.6919 12.1855 17.818 12.4855 17.818 13.0974Z" stroke="#A9A9A9"/>
<path d="M6.88895 8.23437V8.23436H6.88581H3.52195C2.89725 8.23436 2.58766 8.11989 2.42846 7.979C2.28499 7.85203 2.16516 7.61359 2.16516 7.08573V3.31388C2.16516 2.79122 2.28451 2.55164 2.42919 2.42308C2.58896 2.28113 2.89903 2.16525 3.52195 2.16525H6.88581C7.50872 2.16525 7.8188 2.28113 7.97856 2.42308C8.12324 2.55164 8.24259 2.79122 8.24259 3.31388V7.09406C8.24259 7.61709 8.12308 7.85591 7.97929 7.98316C7.82062 8.12359 7.51159 8.23828 6.88895 8.23437Z" stroke="#A9A9A9"/>
<path d="M8.24259 13.0974V16.4612C8.24259 17.0731 8.1165 17.3731 7.95711 17.5325C7.79772 17.6919 7.49768 17.818 6.88581 17.818H3.52195C2.91008 17.818 2.61003 17.6919 2.45065 17.5325C2.29126 17.3731 2.16516 17.0731 2.16516 16.4612V13.0974C2.16516 12.4855 2.29126 12.1855 2.45065 12.0261C2.61003 11.8667 2.91008 11.7406 3.52195 11.7406H6.88581C7.49768 11.7406 7.79772 11.8667 7.95711 12.0261C8.1165 12.1855 8.24259 12.4855 8.24259 13.0974Z" stroke="#A9A9A9"/>
</svg>
