<svg width="20" height="20" viewBox="0 0 20 20" fill="none" xmlns="http://www.w3.org/2000/svg">
<path d="M18.3178 6.28644C18.3178 6.83599 17.8682 7.28561 17.3187 7.28561H2.66422C2.11468 7.28561 1.66505 6.83599 1.66505 6.28644V6.27812C1.66505 4.37138 3.20544 2.83099 5.11218 2.83099L14.8624 2.83099C16.7691 2.83099 18.3178 4.3797 18.3178 6.28644Z" fill="#9E9E9E"/>
<path d="M1.66505 9.53371L1.66505 13.7052C1.66505 15.612 3.20544 17.1524 5.11218 17.1524H14.8624C16.7691 17.1524 18.3178 15.6037 18.3178 13.6969V9.53371C18.3178 8.98417 17.8682 8.53455 17.3187 8.53455H2.66422C2.11468 8.53455 1.66505 8.98417 1.66505 9.53371ZM6.66089 14.363H4.99561C4.65423 14.363 4.37113 14.0799 4.37113 13.7385C4.37113 13.3972 4.65423 13.1141 4.99561 13.1141H6.66089C7.00227 13.1141 7.28537 13.3972 7.28537 13.7385C7.28537 14.0799 7.00227 14.363 6.66089 14.363ZM12.073 14.363H8.74249C8.4011 14.363 8.11801 14.0799 8.11801 13.7385C8.11801 13.3972 8.4011 13.1141 8.74249 13.1141H12.073C12.4144 13.1141 12.6975 13.3972 12.6975 13.7385C12.6975 14.0799 12.4144 14.363 12.073 14.363Z" fill="#9E9E9E"/>
</svg>
