<svg width="20" height="20" viewBox="0 0 20 20" fill="none" xmlns="http://www.w3.org/2000/svg">
<path d="M9.94194 1.84006L7.93528 6.51117H5.92862C5.59557 6.51117 5.27084 6.53614 4.95444 6.60276L5.78708 4.60442L5.82038 4.52949L5.87034 4.39626C5.89532 4.33798 5.91197 4.28802 5.93695 4.24639C6.90281 2.00659 7.98524 1.30717 9.94194 1.84006Z" fill="#9E9E9E"/>
<path d="M15.5955 6.73607L15.5788 6.72774C15.0792 6.58619 14.5713 6.51125 14.0551 6.51125H8.84277L10.7162 2.15655L10.7412 2.09827C10.8578 2.1399 10.9827 2.19818 11.1076 2.23982L12.9477 3.01417C13.9718 3.43882 14.6879 3.88011 15.1292 4.413C15.2041 4.51292 15.2707 4.60451 15.3374 4.71275C15.4123 4.82932 15.4706 4.94589 15.5039 5.07079C15.5372 5.14573 15.5622 5.21234 15.5788 5.28727C15.7037 5.71192 15.712 6.19485 15.5955 6.73607Z" fill="#9E9E9E"/>
<path d="M10.4247 14.7043H10.6329C10.8827 14.7043 11.0908 14.4795 11.0908 14.2047C11.0908 13.855 10.9909 13.8051 10.7744 13.7218L10.4247 13.5969V14.7043Z" fill="#9E9E9E"/>
<path d="M15.2292 7.92666C14.8545 7.81842 14.4632 7.76013 14.0552 7.76013H5.92863C5.36244 7.76013 4.82955 7.86838 4.32997 8.08486C2.88118 8.70934 1.86536 10.1498 1.86536 11.8234V13.4471C1.86536 13.6469 1.88201 13.8384 1.90699 14.0382C2.09017 16.686 3.50565 18.1015 6.15345 18.2764C6.34495 18.3013 6.53646 18.318 6.74462 18.318H13.2392C16.32 18.318 17.9436 16.8525 18.1018 13.9383C18.1101 13.7801 18.1185 13.6136 18.1185 13.4471V11.8234C18.1185 9.98328 16.8945 8.43457 15.2292 7.92666ZM11.0577 12.9058C11.4407 13.0391 11.9569 13.3222 11.9569 14.2048C11.9569 14.9625 11.3658 15.5703 10.633 15.5703H10.4249V15.7535C10.4249 15.9949 10.2334 16.1864 9.99191 16.1864C9.75045 16.1864 9.55894 15.9949 9.55894 15.7535V15.5703H9.484C8.68467 15.5703 8.02688 14.8958 8.02688 14.0632C8.02688 13.8217 8.21839 13.6302 8.45986 13.6302C8.70132 13.6302 8.89283 13.8217 8.89283 14.0632C8.89283 14.4129 9.15927 14.7043 9.484 14.7043H9.55894V13.2972L8.92613 13.0724C8.54312 12.9391 8.02688 12.656 8.02688 11.7735C8.02688 11.0158 8.61806 10.4079 9.35078 10.4079H9.55894V10.2247C9.55894 9.98328 9.75045 9.79177 9.99191 9.79177C10.2334 9.79177 10.4249 9.98328 10.4249 10.2247V10.4079H10.4998C11.2992 10.4079 11.9569 11.0824 11.9569 11.915C11.9569 12.1565 11.7654 12.348 11.524 12.348C11.2825 12.348 11.091 12.1565 11.091 11.915C11.091 11.5653 10.8246 11.2739 10.4998 11.2739H10.4249V12.681L11.0577 12.9058Z" fill="#9E9E9E"/>
<path d="M8.89279 11.7735C8.89279 12.1232 8.99271 12.1732 9.20919 12.2564L9.5589 12.3813V11.2739H9.35074C9.09262 11.2739 8.89279 11.4987 8.89279 11.7735Z" fill="#9E9E9E"/>
</svg>
