<svg width="107" height="29" viewBox="0 0 107 29" fill="none" xmlns="http://www.w3.org/2000/svg">
<path fill-rule="evenodd" clip-rule="evenodd" d="M21.6016 5.17785H10.0906V0.294373L26.4851 0.294373V16.6889H21.6016V5.17785Z" fill="#FFC01E"/>
<path fill-rule="evenodd" clip-rule="evenodd" d="M12.6101 14.8951C11.8643 14.3968 10.9876 14.1309 10.0907 14.1309V9.24741C11.9535 9.24741 13.7744 9.79977 15.3232 10.8346C16.872 11.8695 18.0791 13.3404 18.792 15.0614C19.5048 16.7823 19.6913 18.676 19.3279 20.5029C18.9645 22.3299 18.0675 24.008 16.7504 25.3252C15.4332 26.6423 13.7551 27.5393 11.9281 27.9027C10.1012 28.2661 8.20751 28.0796 6.48657 27.3668C4.76563 26.6539 3.29472 25.4468 2.25984 23.898C1.22496 22.3492 0.672604 20.5283 0.672607 18.6655L5.55609 18.6655C5.55608 19.5624 5.82204 20.4391 6.32031 21.1849C6.81858 21.9306 7.5268 22.5118 8.3554 22.855C9.184 23.1982 10.0958 23.288 10.9754 23.1131C11.855 22.9381 12.663 22.5062 13.2972 21.872C13.9314 21.2379 14.3633 20.4299 14.5383 19.5502C14.7132 18.6706 14.6234 17.7588 14.2802 16.9302C13.937 16.1016 13.3558 15.3934 12.6101 14.8951Z" fill="#1FCB4F"/>
<path d="M34.1595 24.2579V3.76917H41.7403C43.3794 3.76917 44.7356 4.04235 45.8088 4.58872C46.882 5.13508 47.6821 5.88634 48.2089 6.84248C48.7358 7.79862 48.9992 8.87185 48.9992 10.0621C48.9992 11.1939 48.7455 12.2379 48.2382 13.194C47.7309 14.1306 46.9406 14.8916 45.8674 15.477C44.7941 16.0429 43.4185 16.3259 41.7403 16.3259H37.906V24.2579H34.1595ZM37.906 13.2818H41.5062C42.8136 13.2818 43.7502 12.9989 44.3161 12.433C44.9015 11.8476 45.1942 11.0573 45.1942 10.0621C45.1942 9.04746 44.9015 8.25718 44.3161 7.6913C43.7502 7.10591 42.8136 6.81321 41.5062 6.81321H37.906V13.2818Z" fill="white"/>
<path d="M56.6981 24.6092C55.2346 24.6092 53.9369 24.297 52.8052 23.6725C51.6734 23.0481 50.7856 22.17 50.1416 21.0383C49.4977 19.9065 49.1757 18.5991 49.1757 17.1161C49.1757 15.6136 49.488 14.277 50.1124 13.1062C50.7563 11.9354 51.6344 11.028 52.7466 10.3841C53.8784 9.72067 55.2053 9.38894 56.7273 9.38894C58.1518 9.38894 59.4104 9.70115 60.5031 10.3256C61.5958 10.95 62.4447 11.8086 63.0496 12.9013C63.674 13.9745 63.9862 15.1746 63.9862 16.5015C63.9862 16.7161 63.9764 16.9405 63.9569 17.1747C63.9569 17.4088 63.9472 17.6527 63.9277 17.9064H52.893C52.971 19.0382 53.3613 19.926 54.0638 20.57C54.7858 21.2139 55.6541 21.5359 56.6688 21.5359C57.4298 21.5359 58.064 21.37 58.5713 21.0383C59.0982 20.687 59.4884 20.2382 59.7421 19.6919H63.5472C63.274 20.609 62.8154 21.4481 62.1715 22.2091C61.5471 22.9506 60.7665 23.536 59.8299 23.9652C58.9128 24.3945 57.8688 24.6092 56.6981 24.6092ZM56.7273 12.433C55.8102 12.433 55.0004 12.6964 54.2979 13.2233C53.5955 13.7306 53.1467 14.5111 52.9515 15.5648H60.1811C60.1226 14.6087 59.7714 13.8477 59.1274 13.2818C58.4835 12.7159 57.6835 12.433 56.7273 12.433Z" fill="white"/>
<path d="M65.6738 24.2579V9.74018H68.9813L69.274 12.1988C69.7228 11.3403 70.3667 10.6573 71.2058 10.15C72.0643 9.64261 73.0693 9.38894 74.2205 9.38894C76.0157 9.38894 77.4109 9.95482 78.4061 11.0866C79.4013 12.2183 79.8988 13.877 79.8988 16.0624V24.2579H76.1523V16.4137C76.1523 15.1648 75.8987 14.2087 75.3913 13.5452C74.884 12.8818 74.0937 12.5501 73.0205 12.5501C71.9668 12.5501 71.0984 12.9208 70.4155 13.6623C69.752 14.4038 69.4203 15.438 69.4203 16.7649V24.2579H65.6738Z" fill="white"/>
<path d="M88.4865 24.2579C86.9645 24.2579 85.7449 23.8872 84.8278 23.1457C83.9107 22.4042 83.4521 21.0871 83.4521 19.1943V12.872H80.9642V9.74018L83.4521 9.74018L83.8912 5.84731H87.1987V9.74018H91.1208V12.872H87.1987V19.2236C87.1987 19.926 87.345 20.4139 87.6377 20.687C87.9499 20.9407 88.4768 21.0675 89.2183 21.0675H91.033V24.2579H88.4865Z" fill="white"/>
<path d="M97.8791 24.6092C96.6303 24.6092 95.6058 24.414 94.8058 24.0238C94.0058 23.614 93.4106 23.0774 93.0204 22.4139C92.6301 21.7505 92.435 21.0188 92.435 20.2187C92.435 18.8723 92.9618 17.7796 94.0155 16.9405C95.0692 16.1015 96.6498 15.6819 98.7572 15.6819H102.445V15.3307C102.445 14.3355 102.162 13.6038 101.596 13.1355C101.03 12.6671 100.328 12.433 99.489 12.433C98.7279 12.433 98.0645 12.6184 97.4986 12.9891C96.9327 13.3404 96.5815 13.8672 96.4449 14.5697H92.7862C92.8838 13.516 93.235 12.5989 93.8399 11.8183C94.4643 11.0378 95.2644 10.4427 96.24 10.0329C97.2157 9.60359 98.3084 9.38894 99.5182 9.38894C101.587 9.38894 103.216 9.90604 104.406 10.9402C105.597 11.9744 106.192 13.4379 106.192 15.3307V24.2579H103.001L102.65 21.9164C102.221 22.6969 101.616 23.3408 100.835 23.8482C100.074 24.3555 99.0889 24.6092 97.8791 24.6092ZM98.7279 21.6822C99.8012 21.6822 100.63 21.331 101.216 20.6285C101.821 19.926 102.201 19.0577 102.357 18.0235H99.167C98.1718 18.0235 97.4596 18.2089 97.0303 18.5796C96.601 18.9309 96.3864 19.3699 96.3864 19.8968C96.3864 20.4626 96.601 20.9017 97.0303 21.2139C97.4596 21.5261 98.0255 21.6822 98.7279 21.6822Z" fill="white"/>
</svg>
