<svg width="21" height="21" viewBox="0 0 21 21" fill="none" xmlns="http://www.w3.org/2000/svg">
<path d="M14.3701 18.0127H6.04372C3.00458 18.0127 1.25604 16.2642 1.25604 13.225V7.39657C1.25604 4.35744 3.00458 2.60889 6.04372 2.60889L14.3701 2.60889C17.4092 2.60889 19.1578 4.35744 19.1578 7.39657V13.225C19.1578 16.2642 17.4092 18.0127 14.3701 18.0127ZM6.04372 3.85785C3.66237 3.85785 2.505 5.01522 2.505 7.39657V13.225C2.505 15.6064 3.66237 16.7638 6.04372 16.7638H14.3701C16.7515 16.7638 17.9088 15.6064 17.9088 13.225V7.39657C17.9088 5.01522 16.7515 3.85785 14.3701 3.85785L6.04372 3.85785Z" fill="#A9A9A9"/>
<path d="M10.2067 11.0352C9.50726 11.0352 8.79952 10.8187 8.2583 10.3774L5.65214 8.29579C5.3857 8.07931 5.33574 7.68796 5.55223 7.42152C5.76871 7.15508 6.16006 7.10512 6.4265 7.32161L9.03265 9.40321C9.66546 9.91111 10.7396 9.91111 11.3724 9.40321L13.9785 7.32161C14.245 7.10512 14.6446 7.14675 14.8528 7.42152C15.0693 7.68796 15.0277 8.08763 14.7529 8.29579L12.1467 10.3774C11.6138 10.8187 10.9061 11.0352 10.2067 11.0352Z" fill="#A9A9A9"/>
</svg>
