<svg width="21" height="21" viewBox="0 0 21 21" fill="none" xmlns="http://www.w3.org/2000/svg">
<path d="M10.2069 10.6463C7.5674 10.6463 5.41919 8.49812 5.41919 5.85866C5.41919 3.21919 7.5674 1.07098 10.2069 1.07098C12.8463 1.07098 14.9945 3.21919 14.9945 5.85866C14.9945 8.49812 12.8463 10.6463 10.2069 10.6463ZM10.2069 2.31994C8.25849 2.31994 6.66815 3.91028 6.66815 5.85866C6.66815 7.80703 8.25849 9.39737 10.2069 9.39737C12.1552 9.39737 13.7456 7.80703 13.7456 5.85866C13.7456 3.91028 12.1552 2.31994 10.2069 2.31994Z" fill="#A9A9A9"/>
<path d="M17.3594 18.9727C17.018 18.9727 16.7349 18.6896 16.7349 18.3482C16.7349 15.4756 13.804 13.1443 10.207 13.1443C6.61002 13.1443 3.67913 15.4756 3.67913 18.3482C3.67913 18.6896 3.39604 18.9727 3.05465 18.9727C2.71327 18.9727 2.43018 18.6896 2.43018 18.3482C2.43018 14.7929 5.91893 11.8953 10.207 11.8953C14.4951 11.8953 17.9839 14.7929 17.9839 18.3482C17.9839 18.6896 17.7008 18.9727 17.3594 18.9727Z" fill="#A9A9A9"/>
</svg>
