<svg width="20" height="21" viewBox="0 0 20 21" fill="none" xmlns="http://www.w3.org/2000/svg">
<path d="M15.0706 15.6459H4.91236C2.98063 15.6459 1.87323 14.5385 1.87323 12.6068L1.87323 2.53185C1.87323 2.19047 2.15633 1.90737 2.49771 1.90737L17.4852 1.90737C17.8266 1.90737 18.1097 2.19047 18.1097 2.53185V12.6068C18.1097 14.5385 17.0023 15.6459 15.0706 15.6459ZM3.12219 3.15633V12.6068C3.12219 13.8474 3.67172 14.397 4.91236 14.397H15.0622C16.3029 14.397 16.8524 13.8474 16.8524 12.6068V3.15633L3.12219 3.15633Z" fill="#A9A9A9"/>
<path d="M18.3178 3.15633L1.66507 3.15633C1.32369 3.15633 1.04059 2.87323 1.04059 2.53185C1.04059 2.19047 1.32369 1.90737 1.66507 1.90737L18.3178 1.90737C18.6592 1.90737 18.9423 2.19047 18.9423 2.53185C18.9423 2.87323 18.6592 3.15633 18.3178 3.15633Z" fill="#A9A9A9"/>
<path d="M6.66112 19.8091C6.42798 19.8091 6.21148 19.6842 6.10324 19.4677C5.94504 19.1596 6.06995 18.785 6.38636 18.6268L9.36719 17.1363V15.0214C9.36719 14.6801 9.65029 14.397 9.99167 14.397C10.3331 14.397 10.6162 14.6801 10.6162 15.0214V17.5194C10.6162 17.7525 10.4829 17.969 10.2664 18.0772L6.93588 19.7425C6.85261 19.7841 6.75271 19.8091 6.66112 19.8091Z" fill="#A9A9A9"/>
<path d="M13.322 19.809C13.2304 19.809 13.1305 19.7841 13.0472 19.7424L9.71666 18.0772C9.40859 17.919 9.28367 17.5443 9.43354 17.2362C9.59175 16.9281 9.96644 16.8032 10.2745 16.9531L13.6051 18.6184C13.9132 18.7766 14.038 19.1512 13.8882 19.4593C13.7716 19.6841 13.5468 19.809 13.322 19.809Z" fill="#A9A9A9"/>
<path d="M6.24451 10.65C6.06966 10.65 5.88649 10.5751 5.76159 10.4252C5.53678 10.1588 5.57839 9.76743 5.84484 9.54262L8.46767 7.35278C8.70913 7.15294 9.01719 7.06968 9.30862 7.11964C9.60837 7.1696 9.8665 7.35276 10.0247 7.6192L10.899 9.07632L13.3386 7.04471C13.605 6.82822 13.9964 6.8615 14.2212 7.12795C14.446 7.39439 14.4044 7.78573 14.1379 8.01054L11.5151 10.2004C11.2736 10.4002 10.9656 10.4835 10.6742 10.4335C10.3744 10.3836 10.1163 10.2004 9.95807 9.93396L9.08381 8.47684L6.64419 10.5085C6.52762 10.6001 6.38606 10.65 6.24451 10.65Z" fill="#A9A9A9"/>
</svg>
