<svg width="20" height="20" viewBox="0 0 20 20" fill="none" xmlns="http://www.w3.org/2000/svg">
<path d="M10.6161 13.2555H11.1573C11.6985 13.2555 12.1482 12.7726 12.1482 12.1898C12.1482 11.4654 11.8901 11.3238 11.4654 11.1739L10.6244 10.8825V13.2555H10.6161Z" fill="#9E9E9E"/>
<path d="M9.96672 1.58205C5.37055 1.5987 1.64866 5.33725 1.66531 9.93341C1.68196 14.5296 5.42051 18.2515 10.0167 18.2348C14.6128 18.2182 18.3347 14.4796 18.3181 9.88345C18.3014 5.28729 14.5629 1.57372 9.96672 1.58205ZM11.8735 9.9917C12.5229 10.2165 13.3972 10.6994 13.3972 12.1899C13.3972 13.4721 12.3897 14.5046 11.1574 14.5046H10.6162V14.9875C10.6162 15.3289 10.3331 15.612 9.9917 15.612C9.65032 15.612 9.36722 15.3289 9.36722 14.9875V14.5046H9.06747C7.70194 14.5046 6.59453 13.3556 6.59453 11.9401C6.59453 11.5987 6.87763 11.3156 7.21901 11.3156C7.56039 11.3156 7.84349 11.5987 7.84349 11.9401C7.84349 12.6645 8.39303 13.2556 9.06747 13.2556H9.36722V10.4413L8.10993 9.9917C7.46047 9.76689 6.5862 9.28395 6.5862 7.79353C6.5862 6.51127 7.5937 5.47879 8.826 5.47879H9.36722V4.99586C9.36722 4.65448 9.65032 4.37139 9.9917 4.37139C10.3331 4.37139 10.6162 4.65448 10.6162 4.99586V5.47879H10.9159C12.2815 5.47879 13.3889 6.62784 13.3889 8.04332C13.3889 8.3847 13.1058 8.6678 12.7644 8.6678C12.423 8.6678 12.1399 8.3847 12.1399 8.04332C12.1399 7.31893 11.5904 6.72775 10.9159 6.72775H10.6162V9.54207L11.8735 9.9917Z" fill="#9E9E9E"/>
<path d="M7.84335 7.80177C7.84335 8.52616 8.10147 8.66771 8.52612 8.81759L9.36708 9.10901V6.72766H8.82587C8.28465 6.72766 7.84335 7.21059 7.84335 7.80177Z" fill="#9E9E9E"/>
</svg>
