<svg width="21" height="21" viewBox="0 0 21 21" fill="none" xmlns="http://www.w3.org/2000/svg">
<path d="M10.2069 13.7221C8.48331 13.7221 7.08447 12.3232 7.08447 10.5997C7.08447 8.8761 8.48331 7.47727 10.2069 7.47727C11.9304 7.47727 13.3293 8.8761 13.3293 10.5997C13.3293 12.3232 11.9304 13.7221 10.2069 13.7221ZM10.2069 8.72622C9.1744 8.72622 8.33343 9.56719 8.33343 10.5997C8.33343 11.6321 9.1744 12.4731 10.2069 12.4731C11.2393 12.4731 12.0803 11.6321 12.0803 10.5997C12.0803 9.56719 11.2393 8.72622 10.2069 8.72622Z" fill="#A9A9A9"/>
<path d="M12.8797 19.0843C12.7048 19.0843 12.53 19.0593 12.3551 19.0177C11.8389 18.8761 11.4059 18.5514 11.1311 18.0934L11.0312 17.9269C10.54 17.0776 9.86553 17.0776 9.37427 17.9269L9.28268 18.0851C9.00791 18.5514 8.57494 18.8845 8.0587 19.0177C7.53414 19.1592 6.99292 19.0843 6.53497 18.8095L5.10283 17.9852C4.59492 17.6938 4.22856 17.2192 4.07036 16.6447C3.92049 16.0701 3.99542 15.479 4.28685 14.9711C4.52831 14.5464 4.59492 14.1634 4.45338 13.9219C4.31183 13.6805 3.95379 13.5389 3.46254 13.5389C2.24688 13.5389 1.25604 12.5481 1.25604 11.3324V9.86697C1.25604 8.65132 2.24688 7.66048 3.46254 7.66048C3.95379 7.66048 4.31183 7.51893 4.45338 7.27747C4.59492 7.036 4.53664 6.65299 4.28685 6.22834C3.99542 5.72043 3.92049 5.12093 4.07036 4.55474C4.22024 3.98022 4.5866 3.50561 5.10283 3.21419L6.5433 2.38988C7.48418 1.83201 8.72481 2.15674 9.29101 3.11427L9.39092 3.2808C9.88218 4.13009 10.5566 4.13009 11.0479 3.2808L11.1395 3.1226C11.7057 2.15674 12.9463 1.83201 13.8955 2.3982L15.3276 3.22252C15.8355 3.51394 16.2019 3.98854 16.3601 4.56307C16.51 5.13759 16.435 5.72876 16.1436 6.23667C15.9022 6.66132 15.8355 7.04433 15.9771 7.2858C16.1186 7.52726 16.4767 7.66881 16.9679 7.66881C18.1836 7.66881 19.1744 8.65965 19.1744 9.8753V11.3407C19.1744 12.5564 18.1836 13.5472 16.9679 13.5472C16.4767 13.5472 16.1186 13.6888 15.9771 13.9303C15.8355 14.1717 15.8938 14.5547 16.1436 14.9794C16.435 15.4873 16.5183 16.0868 16.3601 16.653C16.2102 17.2275 15.8439 17.7021 15.3276 17.9935L13.8872 18.8178C13.5708 18.9927 13.2294 19.0843 12.8797 19.0843ZM10.2069 16.0035C10.948 16.0035 11.639 16.4698 12.1137 17.2941L12.2052 17.4523C12.3052 17.6272 12.4717 17.7521 12.6715 17.802C12.8714 17.852 13.0712 17.827 13.2377 17.7271L14.6782 16.8944C14.8947 16.7696 15.0612 16.5614 15.1278 16.3116C15.1944 16.0618 15.1611 15.8037 15.0362 15.5872C14.5616 14.7712 14.5033 13.9303 14.8697 13.2891C15.236 12.648 15.9938 12.2816 16.943 12.2816C17.4758 12.2816 17.9005 11.857 17.9005 11.3241V9.85865C17.9005 9.33409 17.4758 8.90111 16.943 8.90111C15.9938 8.90111 15.236 8.53475 14.8697 7.89362C14.5033 7.25249 14.5616 6.41152 15.0362 5.59554C15.1611 5.37905 15.1944 5.12093 15.1278 4.87114C15.0612 4.62135 14.903 4.42152 14.6865 4.28829L13.246 3.46398C12.888 3.2475 12.4134 3.37239 12.1969 3.73875L12.1053 3.89695C11.6307 4.72127 10.9396 5.18754 10.1986 5.18754C9.45753 5.18754 8.76644 4.72127 8.29184 3.89695L8.20025 3.73043C7.99209 3.38072 7.52581 3.25582 7.16778 3.46398L5.72731 4.29662C5.51083 4.42152 5.3443 4.62968 5.27769 4.87947C5.21108 5.12926 5.24438 5.38738 5.36928 5.60386C5.84388 6.41985 5.90217 7.26082 5.53581 7.90195C5.16945 8.54308 4.41174 8.90944 3.46254 8.90944C2.92965 8.90944 2.505 9.33409 2.505 9.86697V11.3324C2.505 11.857 2.92965 12.29 3.46254 12.29C4.41174 12.29 5.16945 12.6563 5.53581 13.2974C5.90217 13.9386 5.84388 14.7795 5.36928 15.5955C5.24438 15.812 5.21108 16.0701 5.27769 16.3199C5.3443 16.5697 5.5025 16.7696 5.71899 16.9028L7.15945 17.7271C7.33431 17.8353 7.54247 17.8603 7.73397 17.8104C7.93381 17.7604 8.10033 17.6272 8.20858 17.4523L8.30017 17.2941C8.77477 16.4781 9.46586 16.0035 10.2069 16.0035Z" fill="#A9A9A9"/>
</svg>
