<svg width="20" height="21" viewBox="0 0 20 21" fill="none" xmlns="http://www.w3.org/2000/svg">
<path d="M9.99141 13.8474C8.26785 13.8474 6.86902 12.4486 6.86902 10.725C6.86902 9.00143 8.26785 7.6026 9.99141 7.6026C11.715 7.6026 13.1138 9.00143 13.1138 10.725C13.1138 12.4486 11.715 13.8474 9.99141 13.8474ZM9.99141 8.85156C8.95894 8.85156 8.11798 9.69252 8.11798 10.725C8.11798 11.7575 8.95894 12.5984 9.99141 12.5984C11.0239 12.5984 11.8649 11.7575 11.8649 10.725C11.8649 9.69252 11.0239 8.85156 9.99141 8.85156Z" fill="#A9A9A9"/>
<path d="M12.6642 19.2096C12.4894 19.2096 12.3145 19.1846 12.1397 19.143C11.6234 19.0015 11.1905 18.6767 10.9157 18.2188L10.8158 18.0523C10.3245 17.203 9.65007 17.203 9.15882 18.0523L9.06723 18.2105C8.79246 18.6767 8.35948 19.0098 7.84325 19.143C7.31869 19.2846 6.77747 19.2096 6.31952 18.9349L4.88738 18.1105C4.37947 17.8191 4.01311 17.3445 3.85491 16.77C3.70503 16.1955 3.77997 15.6043 4.07139 15.0964C4.31286 14.6717 4.37947 14.2887 4.23792 14.0473C4.09637 13.8058 3.73834 13.6642 3.24708 13.6642C2.03143 13.6642 1.04059 12.6734 1.04059 11.4578V9.99231C1.04059 8.77666 2.03143 7.78582 3.24708 7.78582C3.73834 7.78582 4.09637 7.64427 4.23792 7.40281C4.37947 7.16134 4.32119 6.77833 4.07139 6.35368C3.77997 5.84577 3.70503 5.24627 3.85491 4.68008C4.00478 4.10555 4.37114 3.63095 4.88738 3.33953L6.32785 2.51521C7.26873 1.95735 8.50936 2.28208 9.07555 3.23961L9.17547 3.40614C9.66673 4.25543 10.3412 4.25543 10.8324 3.40614L10.924 3.24794C11.4902 2.28208 12.7308 1.95735 13.68 2.52354L15.1122 3.34785C15.6201 3.63928 15.9865 4.11388 16.1447 4.6884C16.2945 5.26292 16.2196 5.8541 15.9282 6.36201C15.6867 6.78665 15.6201 7.16967 15.7616 7.41113C15.9032 7.6526 16.2612 7.79414 16.7525 7.79414C17.9681 7.79414 18.959 8.78499 18.959 10.0006V11.4661C18.959 12.6817 17.9681 13.6726 16.7525 13.6726C16.2612 13.6726 15.9032 13.8141 15.7616 14.0556C15.6201 14.2971 15.6784 14.6801 15.9282 15.1047C16.2196 15.6126 16.3029 16.2121 16.1447 16.7783C15.9948 17.3528 15.6284 17.8274 15.1122 18.1189L13.6717 18.9432C13.3553 19.118 13.0139 19.2096 12.6642 19.2096ZM9.99146 16.1289C10.7325 16.1289 11.4236 16.5951 11.8982 17.4195L11.9898 17.5777C12.0897 17.7525 12.2562 17.8774 12.4561 17.9274C12.6559 17.9773 12.8557 17.9523 13.0223 17.8524L14.4627 17.0198C14.6792 16.8949 14.8457 16.6867 14.9124 16.4369C14.979 16.1871 14.9457 15.929 14.8208 15.7125C14.3462 14.8966 14.2879 14.0556 14.6542 13.4145C15.0206 12.7733 15.7783 12.407 16.7275 12.407C17.2604 12.407 17.685 11.9823 17.685 11.4494V9.98398C17.685 9.45942 17.2604 9.02645 16.7275 9.02645C15.7783 9.02645 15.0206 8.66009 14.6542 8.01896C14.2879 7.37783 14.3462 6.53686 14.8208 5.72087C14.9457 5.50439 14.979 5.24627 14.9124 4.99648C14.8457 4.74669 14.6875 4.54685 14.4711 4.41363L13.0306 3.58932C12.6726 3.37283 12.1979 3.49773 11.9815 3.86409L11.8899 4.02229C11.4153 4.8466 10.7242 5.31288 9.98313 5.31288C9.24208 5.31288 8.55099 4.8466 8.07639 4.02229L7.9848 3.85576C7.77664 3.50605 7.31036 3.38116 6.95232 3.58932L5.51186 4.42196C5.29537 4.54685 5.12885 4.75501 5.06223 5.0048C4.99562 5.2546 5.02893 5.51271 5.15382 5.7292C5.62843 6.54519 5.68671 7.38615 5.32035 8.02728C4.95399 8.66842 4.19629 9.03478 3.24708 9.03478C2.71419 9.03478 2.28955 9.45942 2.28955 9.99231V11.4578C2.28955 11.9823 2.71419 12.4153 3.24708 12.4153C4.19629 12.4153 4.95399 12.7817 5.32035 13.4228C5.68671 14.0639 5.62843 14.9049 5.15382 15.7209C5.02893 15.9374 4.99562 16.1955 5.06223 16.4453C5.12885 16.6951 5.28705 16.8949 5.50353 17.0281L6.944 17.8524C7.11885 17.9607 7.32701 17.9856 7.51852 17.9357C7.71835 17.8857 7.88488 17.7525 7.99312 17.5777L8.08471 17.4195C8.55932 16.6035 9.25041 16.1289 9.99146 16.1289Z" fill="#A9A9A9"/>
</svg>
