<svg width="20" height="21" viewBox="0 0 20 21" fill="none" xmlns="http://www.w3.org/2000/svg">
<path d="M14.1547 18.138H5.82826C2.78913 18.138 1.04059 16.3895 1.04059 13.3504V7.5219C1.04059 4.48277 2.78913 2.73423 5.82826 2.73423L14.1547 2.73423C17.1938 2.73423 18.9423 4.48277 18.9423 7.5219V13.3504C18.9423 16.3895 17.1938 18.138 14.1547 18.138ZM5.82826 3.98319C3.44691 3.98319 2.28955 5.14056 2.28955 7.5219V13.3504C2.28955 15.7317 3.44691 16.8891 5.82826 16.8891H14.1547C16.536 16.8891 17.6934 15.7317 17.6934 13.3504V7.5219C17.6934 5.14056 16.536 3.98319 14.1547 3.98319L5.82826 3.98319Z" fill="#A9A9A9"/>
<path d="M9.99122 11.1605C9.29181 11.1605 8.58407 10.944 8.04285 10.5027L5.43669 8.42113C5.17024 8.20464 5.12029 7.8133 5.33677 7.54686C5.55326 7.28041 5.9446 7.23046 6.21105 7.44694L8.8172 9.52854C9.45 10.0365 10.5241 10.0365 11.1569 9.52854L13.7631 7.44694C14.0295 7.23046 14.4292 7.27209 14.6373 7.54686C14.8538 7.8133 14.8122 8.21297 14.5374 8.42113L11.9313 10.5027C11.3984 10.944 10.6906 11.1605 9.99122 11.1605Z" fill="#A9A9A9"/>
</svg>
