<svg width="21" height="21" viewBox="0 0 21 21" fill="none" xmlns="http://www.w3.org/2000/svg">
<path d="M11.0395 8.28178H6.04367C5.70229 8.28178 5.41919 7.99868 5.41919 7.6573C5.41919 7.31592 5.70229 7.03282 6.04367 7.03282H11.0395C11.3809 7.03282 11.664 7.31592 11.664 7.6573C11.664 7.99868 11.3809 8.28178 11.0395 8.28178Z" fill="#A9A9A9"/>
<path d="M16.0686 12.4865C14.8113 12.4865 13.7455 11.554 13.6456 10.355C13.579 9.66391 13.8288 8.98948 14.3284 8.49823C14.7447 8.06525 15.3358 7.82379 15.9603 7.82379H17.7006C18.5249 7.84877 19.1577 8.49819 19.1577 9.29753V11.0128C19.1577 11.8121 18.5249 12.4616 17.7256 12.4865H16.0686ZM17.6755 9.07275H15.9687C15.6772 9.07275 15.4108 9.18099 15.2193 9.38082C14.9778 9.61396 14.8613 9.93035 14.8946 10.2467C14.9362 10.7963 15.4691 11.2376 16.0686 11.2376H17.7006C17.8088 11.2376 17.9087 11.1377 17.9087 11.0128V9.29753C17.9087 9.17263 17.8088 9.08108 17.6755 9.07275Z" fill="#A9A9A9"/>
<path d="M13.5375 17.8571H6.04372C3.17944 17.8571 1.25604 15.9337 1.25604 13.0695V7.24098C1.25604 4.67645 2.83804 2.81968 5.29432 2.5116C5.51913 2.47829 5.77727 2.45331 6.04372 2.45331L13.5375 2.45331C13.7373 2.45331 13.9954 2.46163 14.2619 2.50326C16.7181 2.78636 18.3251 4.65147 18.3251 7.24098V8.44832C18.3251 8.7897 18.042 9.0728 17.7007 9.0728H15.9688C15.6773 9.0728 15.4109 9.18104 15.2194 9.38087L15.2111 9.3892C14.9779 9.61402 14.8697 9.92206 14.8947 10.2385C14.9363 10.788 15.4692 11.2293 16.0687 11.2293H17.7007C18.042 11.2293 18.3251 11.5124 18.3251 11.8538V13.0611C18.3251 15.9337 16.4017 17.8571 13.5375 17.8571ZM6.04372 3.70227C5.84388 3.70227 5.65237 3.71891 5.46086 3.74389C3.62905 3.97703 2.505 5.30926 2.505 7.24098V13.0695C2.505 15.2177 3.89551 16.6082 6.04372 16.6082H13.5375C15.6857 16.6082 17.0762 15.2177 17.0762 13.0695V12.4866H16.0687C14.8114 12.4866 13.7456 11.554 13.6457 10.355C13.5791 9.67228 13.8289 8.98954 14.3285 8.50661C14.7615 8.06531 15.3443 7.82384 15.9688 7.82384H17.0762V7.24098C17.0762 5.29261 15.9354 3.95204 14.087 3.73555C13.8872 3.70225 13.7123 3.70227 13.5375 3.70227L6.04372 3.70227Z" fill="#A9A9A9"/>
</svg>
