<svg width="20" height="21" viewBox="0 0 20 21" fill="none" xmlns="http://www.w3.org/2000/svg">
<path d="M9.99141 10.7717C7.35194 10.7717 5.20374 8.62346 5.20374 5.98399C5.20374 3.34453 7.35194 1.19632 9.99141 1.19632C12.6309 1.19632 14.7791 3.34453 14.7791 5.98399C14.7791 8.62346 12.6309 10.7717 9.99141 10.7717ZM9.99141 2.44528C8.04303 2.44528 6.45269 4.03562 6.45269 5.98399C6.45269 7.93237 8.04303 9.52271 9.99141 9.52271C11.9398 9.52271 13.5301 7.93237 13.5301 5.98399C13.5301 4.03562 11.9398 2.44528 9.99141 2.44528Z" fill="#A9A9A9"/>
<path d="M17.1439 19.0981C16.8025 19.0981 16.5195 18.815 16.5195 18.4736C16.5195 15.601 13.5886 13.2696 9.99157 13.2696C6.39457 13.2696 3.46368 15.601 3.46368 18.4736C3.46368 18.815 3.18058 19.0981 2.8392 19.0981C2.49782 19.0981 2.21472 18.815 2.21472 18.4736C2.21472 14.9182 5.70348 12.0206 9.99157 12.0206C14.2797 12.0206 17.7684 14.9182 17.7684 18.4736C17.7684 18.815 17.4853 19.0981 17.1439 19.0981Z" fill="#A9A9A9"/>
</svg>
