<svg width="20" height="21" viewBox="0 0 20 21" fill="none" xmlns="http://www.w3.org/2000/svg">
<path d="M10.824 8.40712H5.82821C5.48683 8.40712 5.20374 8.12402 5.20374 7.78264C5.20374 7.44125 5.48683 7.15816 5.82821 7.15816H10.824C11.1654 7.15816 11.4485 7.44125 11.4485 7.78264C11.4485 8.12402 11.1654 8.40712 10.824 8.40712Z" fill="#A9A9A9"/>
<path d="M15.8531 12.6119C14.5958 12.6119 13.5301 11.6793 13.4302 10.4803C13.3635 9.78924 13.6133 9.11482 14.1129 8.62356C14.5292 8.19059 15.1204 7.94913 15.7449 7.94913H17.4851C18.3094 7.97411 18.9422 8.62353 18.9422 9.42286V11.1381C18.9422 11.9375 18.3094 12.5869 17.5101 12.6119H15.8531ZM17.4601 9.19809H15.7532C15.4618 9.19809 15.1954 9.30632 15.0039 9.50616C14.7624 9.7393 14.6458 10.0557 14.6791 10.3721C14.7207 10.9216 15.2536 11.3629 15.8531 11.3629H17.4851C17.5933 11.3629 17.6933 11.263 17.6933 11.1381V9.42286C17.6933 9.29797 17.5933 9.20641 17.4601 9.19809Z" fill="#A9A9A9"/>
<path d="M13.322 17.9825H5.82826C2.96398 17.9825 1.04059 16.0591 1.04059 13.1948V7.36632C1.04059 4.80179 2.62258 2.94501 5.07887 2.63693C5.30368 2.60363 5.56182 2.57864 5.82826 2.57864L13.322 2.57864C13.5218 2.57864 13.78 2.58697 14.0464 2.6286C16.5027 2.9117 18.1097 4.77681 18.1097 7.36632V8.57365C18.1097 8.91504 17.8266 9.19813 17.4852 9.19813H15.7533C15.4619 9.19813 15.1955 9.30637 15.004 9.50621L14.9956 9.51454C14.7625 9.73935 14.6542 10.0474 14.6792 10.3638C14.7208 10.9133 15.2537 11.3546 15.8532 11.3546H17.4852C17.8266 11.3546 18.1097 11.6377 18.1097 11.9791V13.1865C18.1097 16.0591 16.1863 17.9825 13.322 17.9825ZM5.82826 3.8276C5.62843 3.8276 5.43691 3.84424 5.2454 3.86922C3.4136 4.10236 2.28955 5.4346 2.28955 7.36632V13.1948C2.28955 15.343 3.68005 16.7335 5.82826 16.7335H13.322C15.4702 16.7335 16.8607 15.343 16.8607 13.1948V12.6119H15.8532C14.5959 12.6119 13.5302 11.6794 13.4303 10.4804C13.3636 9.79761 13.6134 9.11488 14.113 8.63194C14.546 8.19065 15.1288 7.94917 15.7533 7.94917H16.8607V7.36632C16.8607 5.41794 15.72 4.07738 13.8715 3.86089C13.6717 3.82758 13.4969 3.8276 13.322 3.8276L5.82826 3.8276V3.8276Z" fill="#A9A9A9"/>
</svg>
