<svg width="20" height="21" viewBox="0 0 20 21" fill="none" xmlns="http://www.w3.org/2000/svg">
<path d="M12.073 14.5244H7.90982C7.56844 14.5244 7.28534 14.2413 7.28534 13.9C7.28534 13.5586 7.56844 13.2755 7.90982 13.2755H12.073C12.4144 13.2755 12.6975 13.5586 12.6975 13.9C12.6975 14.2413 12.4144 14.5244 12.073 14.5244Z" fill="#A9A9A9"/>
<path d="M4.32967 9.28714C4.17147 9.28714 4.01327 9.22053 3.88837 9.10396C3.71352 8.9291 3.65523 8.65433 3.75515 8.42119L5.30386 4.72428C5.33716 4.64934 5.35382 4.59938 5.3788 4.55775C6.6111 1.71845 8.18479 1.02736 10.9658 2.09314C11.124 2.15142 11.2489 2.27632 11.3155 2.43452C11.3821 2.59272 11.3821 2.76758 11.3155 2.92578L8.87588 8.58772C8.77596 8.81253 8.55115 8.96241 8.30136 8.96241H5.92834C5.45373 8.96241 5.00411 9.054 4.57114 9.23718C4.4962 9.27049 4.41293 9.28714 4.32967 9.28714ZM8.83425 2.86749C7.80178 2.86749 7.16897 3.54193 6.51118 5.07399C6.50286 5.09897 6.48621 5.12394 6.47788 5.14892L5.38712 7.73843C5.5703 7.72178 5.74516 7.71345 5.92834 7.71345H7.88504L9.8917 3.05067C9.50036 2.92578 9.15065 2.86749 8.83425 2.86749Z" fill="#A9A9A9"/>
<path d="M15.2289 9.12895C15.1707 9.12895 15.104 9.12063 15.0458 9.10397C14.7377 9.01238 14.3963 8.96243 14.0466 8.96243H8.30139C8.09323 8.96243 7.8934 8.85418 7.77683 8.67933C7.66858 8.50448 7.64361 8.27966 7.72687 8.08816L10.1415 2.4845C10.2664 2.18475 10.6245 1.98491 10.9409 2.08483C11.0408 2.11813 11.1324 2.15977 11.2323 2.2014L13.1973 3.02571C14.3463 3.50032 15.1124 3.9999 15.612 4.5994C15.7119 4.71597 15.7951 4.84086 15.8701 4.96576C15.9617 5.10731 16.0449 5.28216 16.1032 5.45702C16.1282 5.5153 16.1698 5.62354 16.1948 5.74011C16.4279 6.52279 16.3114 7.49698 15.8118 8.74594C15.7119 8.97908 15.4787 9.12895 15.2289 9.12895ZM9.2506 7.71347H14.0549C14.3214 7.71347 14.5795 7.73845 14.8376 7.78008C15.0707 7.05568 15.1207 6.49782 14.9875 6.04819C14.9708 5.97325 14.9542 5.93995 14.9458 5.90664C14.8959 5.77342 14.8626 5.69848 14.821 5.63187C14.7627 5.54028 14.721 5.46534 14.6544 5.39041C14.2964 4.95743 13.6636 4.55777 12.7227 4.17475L11.0741 3.48366L9.2506 7.71347Z" fill="#A9A9A9"/>
<path d="M13.2387 19.5202H6.74414C6.511 19.5202 6.29451 19.5036 6.07802 19.4786C3.15546 19.2787 1.49018 17.6135 1.29035 14.6576C1.26537 14.4744 1.24872 14.2496 1.24872 14.0248V12.4012C1.24872 10.5277 2.36445 8.83746 4.08802 8.08808C4.67086 7.83829 5.29534 7.71339 5.93648 7.71339H14.063C14.5376 7.71339 14.9956 7.78001 15.4202 7.91323C17.3769 8.5044 18.7508 10.3529 18.7508 12.4012V14.0248C18.7508 14.208 18.7425 14.3828 18.7341 14.5494C18.551 17.805 16.6525 19.5202 13.2387 19.5202ZM5.92815 8.96235C5.45354 8.96235 5.00392 9.05394 4.57095 9.23712C3.30534 9.78667 2.48935 11.0273 2.48935 12.4012V14.0248C2.48935 14.1997 2.506 14.3745 2.52266 14.541C2.68086 16.9141 3.84655 18.0797 6.18627 18.2379C6.39443 18.2629 6.56095 18.2796 6.73581 18.2796H13.2304C15.9781 18.2796 17.327 17.0723 17.4602 14.4911C17.4685 14.3412 17.4768 14.1913 17.4768 14.0248V12.4012C17.4768 10.8941 16.4694 9.5452 15.0372 9.1039C14.7291 9.01231 14.3878 8.96235 14.0381 8.96235H5.92815V8.96235Z" fill="#A9A9A9"/>
<path d="M1.86508 13.0257C1.5237 13.0257 1.2406 12.7426 1.2406 12.4012V9.96161C1.2406 7.3388 3.09739 5.07402 5.66191 4.57444C5.88673 4.53281 6.11986 4.61607 6.26974 4.79093C6.41129 4.96578 6.45292 5.21557 6.36133 5.42373L4.90421 8.90416C4.8376 9.05404 4.72103 9.17061 4.57948 9.23722C3.31387 9.78676 2.49789 11.0274 2.49789 12.4012C2.48956 12.7426 2.21479 13.0257 1.86508 13.0257ZM4.66275 6.25637C3.59697 6.85587 2.82261 7.905 2.58115 9.12898C2.94751 8.75429 3.37216 8.43789 3.85509 8.20475L4.66275 6.25637Z" fill="#A9A9A9"/>
<path d="M18.1181 13.0257C17.7768 13.0257 17.4937 12.7426 17.4937 12.4012C17.4937 10.8941 16.4862 9.54527 15.054 9.10397C14.8875 9.05401 14.7459 8.93744 14.671 8.77924C14.5961 8.62104 14.5877 8.43786 14.6544 8.27965C15.0457 7.30547 15.1456 6.59772 14.9874 6.04818C14.9708 5.97324 14.9541 5.93994 14.9458 5.90663C14.8375 5.66517 14.8958 5.38207 15.0873 5.19889C15.2788 5.01571 15.5703 4.97408 15.8034 5.09897C17.6186 6.04818 18.7426 7.91329 18.7426 9.96159V12.4012C18.7426 12.7426 18.4595 13.0257 18.1181 13.0257ZM16.0282 8.14643C16.5528 8.3879 17.0191 8.72928 17.4104 9.13727C17.2522 8.32129 16.8609 7.58024 16.2863 6.99739C16.2447 7.3471 16.1614 7.73011 16.0282 8.14643Z" fill="#A9A9A9"/>
</svg>
